<svg width="69" height="90" viewBox="0 0 69 43" fill="none" xmlns="http://www.w3.org/2000/svg">
<path d="M34.0854 25.1873C46.1027 25.7337 47.1952 37.756 47.1952 37.756H20.9756C20.9756 37.756 22.0681 24.6408 34.0854 25.1873Z" fill="white"/>
<circle cx="34.0854" cy="13.1098" r="7.86585" fill="white"/>
<path d="M41.252 12.5417C41.252 14.4424 40.497 16.2653 39.153 17.6093C37.809 18.9533 35.9861 19.7083 34.0854 19.7083C32.1847 19.7083 30.3618 18.9533 29.0178 17.6093C27.6738 16.2653 26.9187 14.4424 26.9187 12.5417C26.9187 10.6409 27.6738 8.81808 29.0178 7.47407C30.3618 6.13006 32.1847 5.375 34.0854 5.375C35.9861 5.375 37.809 6.13006 39.153 7.47407C40.497 8.81808 41.252 10.6409 41.252 12.5417V12.5417ZM34.0854 25.0833C30.7591 25.0833 27.5691 26.4047 25.2171 28.7567C22.8651 31.1087 21.5437 34.2987 21.5437 37.625H46.627C46.627 34.2987 45.3057 31.1087 42.9537 28.7567C40.6016 26.4047 37.4116 25.0833 34.0854 25.0833V25.0833Z" stroke="white" stroke-width="2" stroke-linecap="round" stroke-linejoin="round"/>
<path d="M12.5854 15.7927C19.6199 16.1126 20.2594 23.15 20.2594 23.15H4.91138C4.91138 23.15 5.55088 15.4728 12.5854 15.7927Z" fill="white"/>
<ellipse cx="12.5854" cy="8.72281" rx="4.6044" ry="4.6044" fill="white"/>
<path d="M16.7805 8.39019C16.7805 9.50281 16.3385 10.5699 15.5518 11.3566C14.765 12.1433 13.698 12.5853 12.5854 12.5853C11.4727 12.5853 10.4057 12.1433 9.61896 11.3566C8.83222 10.5699 8.39024 9.50281 8.39024 8.39019C8.39024 7.27757 8.83222 6.21053 9.61896 5.42379C10.4057 4.63705 11.4727 4.19507 12.5854 4.19507C13.698 4.19507 14.765 4.63705 15.5518 5.42379C16.3385 6.21053 16.7805 7.27757 16.7805 8.39019V8.39019ZM12.5854 15.7317C10.6383 15.7317 8.77095 16.5051 7.39416 17.8819C6.01737 19.2587 5.2439 21.126 5.2439 23.0731H19.9268C19.9268 21.126 19.1534 19.2587 17.7766 17.8819C16.3998 16.5051 14.5324 15.7317 12.5854 15.7317V15.7317Z" stroke="white" stroke-width="2" stroke-linecap="round" stroke-linejoin="round"/>
<path d="M55.5854 15.7927C62.6199 16.1126 63.2594 23.15 63.2594 23.15H47.9114C47.9114 23.15 48.5509 15.4728 55.5854 15.7927Z" fill="white"/>
<ellipse cx="55.5854" cy="8.72281" rx="4.6044" ry="4.6044" fill="white"/>
<path d="M59.7805 8.39019C59.7805 9.50281 59.3385 10.5699 58.5518 11.3566C57.765 12.1433 56.698 12.5853 55.5854 12.5853C54.4727 12.5853 53.4057 12.1433 52.619 11.3566C51.8322 10.5699 51.3902 9.50281 51.3902 8.39019C51.3902 7.27757 51.8322 6.21053 52.619 5.42379C53.4057 4.63705 54.4727 4.19507 55.5854 4.19507C56.698 4.19507 57.765 4.63705 58.5518 5.42379C59.3385 6.21053 59.7805 7.27757 59.7805 8.39019V8.39019ZM55.5854 15.7317C53.6383 15.7317 51.771 16.5051 50.3942 17.8819C49.0174 19.2587 48.2439 21.126 48.2439 23.0731H62.9268C62.9268 21.126 62.1534 19.2587 60.7766 17.8819C59.3998 16.5051 57.5324 15.7317 55.5854 15.7317V15.7317Z" stroke="white" stroke-width="2" stroke-linecap="round" stroke-linejoin="round"/>
</svg>
