<svg width="36" height="36" viewBox="0 0 36 36" fill="none" xmlns="http://www.w3.org/2000/svg">
<path opacity="0.5" d="M12 5L18 3.5L24 5C24 5 28.5 8.5 29 14.5C29.5 20.5 24 23 24 23V28H12V23C12 23 7 20 7 14.5C7 9 12 5 12 5Z" fill="white"/>
<path d="M24.75 32.625C24.75 32.9234 24.6315 33.2095 24.4205 33.4205C24.2095 33.6315 23.9234 33.75 23.625 33.75H12.375C12.0766 33.75 11.7905 33.6315 11.5795 33.4205C11.3685 33.2095 11.25 32.9234 11.25 32.625C11.25 32.3267 11.3685 32.0405 11.5795 31.8295C11.7905 31.6186 12.0766 31.5 12.375 31.5H23.625C23.9234 31.5 24.2095 31.6186 24.4205 31.8295C24.6315 32.0405 24.75 32.3267 24.75 32.625ZM30.375 14.625C30.3787 16.4995 29.9551 18.3502 29.1364 20.0364C28.3177 21.7226 27.1253 23.2 25.65 24.3563C25.3714 24.5666 25.1451 24.8385 24.989 25.1508C24.8329 25.463 24.7511 25.8072 24.75 26.1563V27C24.75 27.5968 24.5129 28.1691 24.091 28.591C23.669 29.013 23.0967 29.25 22.5 29.25H13.5C12.9033 29.25 12.331 29.013 11.909 28.591C11.4871 28.1691 11.25 27.5968 11.25 27V26.1563C11.249 25.8121 11.1701 25.4725 11.0191 25.1632C10.8681 24.8539 10.6489 24.5828 10.3781 24.3703C8.90588 23.222 7.71325 21.7548 6.88996 20.0789C6.06667 18.4031 5.63417 16.5624 5.625 14.6953C5.58281 7.98753 11.0109 2.40472 17.7047 2.25003C19.355 2.20871 20.9968 2.49837 22.5334 3.10192C24.0699 3.70548 25.4699 4.61069 26.6509 5.76414C27.8319 6.9176 28.7699 8.29593 29.4095 9.81779C30.0491 11.3397 30.3774 12.9742 30.375 14.625ZM28.125 14.625C28.1235 13.2756 27.8526 11.94 27.3282 10.6966C26.8038 9.45324 26.0365 8.32704 25.0712 7.38404C24.1059 6.44103 22.9621 5.7002 21.7069 5.20498C20.4516 4.70975 19.1101 4.47008 17.7609 4.50003C12.2766 4.62659 7.84688 9.1969 7.875 14.6813C7.87999 16.2087 8.23195 17.7151 8.90432 19.0866C9.57668 20.4582 10.5519 21.659 11.7562 22.5985C12.2991 23.0191 12.7385 23.5584 13.0408 24.1751C13.343 24.7918 13.5001 25.4695 13.5 26.1563V27H22.5V26.1563C22.5005 25.4661 22.6592 24.7853 22.9639 24.1661C23.2686 23.5469 23.7113 23.0058 24.2578 22.5844C25.4668 21.6405 26.4438 20.4326 27.1141 19.053C27.7844 17.6734 28.1302 16.1588 28.125 14.625ZM25.7625 13.3032C25.4897 11.6955 24.723 10.2128 23.5687 9.06111C22.4144 7.90938 20.9301 7.14583 19.3219 6.87659C19.176 6.85258 19.0268 6.85755 18.8828 6.8912C18.7389 6.92485 18.6029 6.98652 18.4828 7.07271C18.3626 7.15889 18.2607 7.2679 18.1827 7.39349C18.1046 7.51909 18.0521 7.65882 18.0281 7.80472C18.0041 7.95061 18.0091 8.0998 18.0427 8.24377C18.0764 8.38774 18.1381 8.52368 18.2242 8.64381C18.3104 8.76395 18.4194 8.86593 18.545 8.94394C18.6706 9.02195 18.8104 9.07446 18.9563 9.09846C20.1025 9.29036 21.1603 9.83521 21.9821 10.657C22.8039 11.4788 23.3487 12.5366 23.5406 13.6828C23.587 13.9435 23.7238 14.1796 23.927 14.3493C24.1302 14.5191 24.3868 14.6117 24.6516 14.611H24.8484C24.9954 14.5873 25.1361 14.5344 25.2621 14.4553C25.3882 14.3762 25.4971 14.2726 25.5824 14.1506C25.6676 14.0286 25.7275 13.8907 25.7584 13.7452C25.7894 13.5996 25.7908 13.4493 25.7625 13.3032Z" fill="#999999"/>
</svg>
