<svg width="59" height="59" viewBox="0 0 59 59" fill="none" xmlns="http://www.w3.org/2000/svg">
<path d="M32.5729 29.0084H36.2604C36.2604 27.8202 36.3834 26.9492 36.6292 26.3952C36.875 25.8429 37.4486 25.1161 38.35 24.2147C39.5792 22.9855 40.3986 21.9915 40.8084 21.2327C41.2181 20.4755 41.4229 19.5848 41.4229 18.5605C41.4229 16.7167 40.7772 15.2114 39.4858 14.0445C38.196 12.876 36.5063 12.2917 34.4167 12.2917C32.7368 12.2917 31.2725 12.7629 30.0236 13.7053C28.7732 14.6477 27.9021 15.8973 27.4104 17.4542L30.7292 18.8063C31.0979 17.782 31.6003 17.0134 32.2361 16.5004C32.8704 15.9891 33.5972 15.7334 34.4167 15.7334C35.4 15.7334 36.199 16.0096 36.8136 16.5619C37.4282 17.1158 37.7354 17.864 37.7354 18.8063C37.7354 19.3799 37.5715 19.9224 37.2438 20.4338C36.916 20.9467 36.3424 21.5924 35.5229 22.3709C34.1709 23.5591 33.3416 24.4908 33.0351 25.166C32.727 25.8429 32.5729 27.1237 32.5729 29.0084ZM34.4167 36.8751C35.1132 36.8751 35.718 36.6194 36.2309 36.1081C36.7423 35.5951 36.9979 34.9904 36.9979 34.2938C36.9979 33.5973 36.7423 32.9926 36.2309 32.4796C35.718 31.9683 35.1132 31.7126 34.4167 31.7126C33.7202 31.7126 33.1162 31.9683 32.6049 32.4796C32.0919 32.9926 31.8354 33.5973 31.8354 34.2938C31.8354 34.9904 32.0919 35.5951 32.6049 36.1081C33.1162 36.6194 33.7202 36.8751 34.4167 36.8751ZM19.6667 44.2501C18.3146 44.2501 17.1575 43.7691 16.1955 42.807C15.2319 41.8434 14.75 40.6855 14.75 39.3334V9.83342C14.75 8.48133 15.2319 7.32346 16.1955 6.35979C17.1575 5.39776 18.3146 4.91675 19.6667 4.91675H49.1667C50.5188 4.91675 51.6766 5.39776 52.6403 6.35979C53.6023 7.32346 54.0834 8.48133 54.0834 9.83342V39.3334C54.0834 40.6855 53.6023 41.8434 52.6403 42.807C51.6766 43.7691 50.5188 44.2501 49.1667 44.2501H19.6667ZM19.6667 39.3334H49.1667V9.83342H19.6667V39.3334ZM19.6667 9.83342V39.3334V9.83342ZM9.83335 54.0834C8.48127 54.0834 7.32422 53.6024 6.36219 52.6404C5.39852 51.6767 4.91669 50.5188 4.91669 49.1668V14.7501H9.83335V49.1668H44.25V54.0834H9.83335Z" fill="white"/>
</svg>
