<svg width="92" height="98" viewBox="0 0 92 98" fill="none" xmlns="http://www.w3.org/2000/svg">
<path d="M46.0537 35.959C42.8418 35.959 39.834 37.2051 37.5566 39.4824C35.29 41.7598 34.0332 44.7676 34.0332 47.9795C34.0332 51.1914 35.29 54.1992 37.5566 56.4766C39.834 58.7432 42.8418 60 46.0537 60C49.2656 60 52.2734 58.7432 54.5508 56.4766C56.8174 54.1992 58.0742 51.1914 58.0742 47.9795C58.0742 44.7676 56.8174 41.7598 54.5508 39.4824C53.4385 38.3616 52.1145 37.4729 50.6558 36.868C49.1972 36.2631 47.6328 35.9542 46.0537 35.959V35.959ZM90.3438 61.2568L83.3184 55.252C83.6514 53.2109 83.8232 51.127 83.8232 49.0537C83.8232 46.9805 83.6514 44.8857 83.3184 42.8555L90.3438 36.8506C90.8745 36.3963 91.2543 35.7911 91.4328 35.1157C91.6112 34.4403 91.5798 33.7265 91.3428 33.0693L91.2461 32.79C89.3126 27.3834 86.4156 22.3718 82.6953 17.998L82.502 17.7725C82.0502 17.2413 81.4481 16.8594 80.775 16.6773C80.1019 16.4951 79.3894 16.5211 78.7315 16.752L70.0088 19.8564C66.7861 17.2139 63.1983 15.1299 59.3096 13.6797L57.6231 4.55957C57.4958 3.87252 57.1625 3.24046 56.6675 2.74734C56.1725 2.25422 55.5391 1.9234 54.8516 1.79883L54.5615 1.74512C48.9756 0.735352 43.0889 0.735352 37.5029 1.74512L37.2129 1.79883C36.5254 1.9234 35.892 2.25422 35.397 2.74734C34.9019 3.24046 34.5687 3.87252 34.4414 4.55957L32.7441 13.7227C28.8923 15.1844 25.3041 17.2633 22.1201 19.8779L13.333 16.752C12.6752 16.5193 11.9622 16.4923 11.2887 16.6746C10.6152 16.8569 10.0132 17.2398 9.56251 17.7725L9.36915 17.998C5.65549 22.3765 2.75917 27.3868 0.818366 32.79L0.721686 33.0693C0.238287 34.4121 0.635749 35.916 1.72071 36.8506L8.83204 42.9199C8.49903 44.9395 8.3379 47.002 8.3379 49.043C8.3379 51.1055 8.49903 53.168 8.83204 55.166L1.74219 61.2354C1.21148 61.6897 0.831647 62.2948 0.653193 62.9702C0.474739 63.6457 0.506122 64.3594 0.74317 65.0166L0.83985 65.2959C2.78419 70.6992 5.65235 75.6943 9.39063 80.0879L9.58399 80.3135C10.0357 80.8447 10.6378 81.2265 11.3109 81.4087C11.984 81.5908 12.6965 81.5648 13.3545 81.334L22.1416 78.208C25.3428 80.8398 28.9092 82.9238 32.7656 84.3633L34.4629 93.5264C34.5901 94.2134 34.9234 94.8455 35.4185 95.3386C35.9135 95.8317 36.5468 96.1625 37.2344 96.2871L37.5244 96.3408C43.1653 97.356 48.9421 97.356 54.583 96.3408L54.8731 96.2871C55.5606 96.1625 56.1939 95.8317 56.689 95.3386C57.184 94.8455 57.5173 94.2134 57.6445 93.5264L59.3311 84.4062C63.2197 82.9453 66.8076 80.8721 70.0303 78.2295L78.7529 81.334C79.4107 81.5666 80.1237 81.5936 80.7972 81.4113C81.4707 81.229 82.0728 80.8461 82.5234 80.3135L82.7168 80.0879C86.4551 75.6729 89.3233 70.6992 91.2676 65.2959L91.3643 65.0166C91.8262 63.6846 91.4287 62.1914 90.3438 61.2568ZM46.0537 66.8643C35.6231 66.8643 27.169 58.4102 27.169 47.9795C27.169 37.5488 35.6231 29.0947 46.0537 29.0947C56.4844 29.0947 64.9385 37.5488 64.9385 47.9795C64.9385 58.4102 56.4844 66.8643 46.0537 66.8643Z" fill="#999999"/>
</svg>
