<?xml version="1.0" standalone="no"?>
<!DOCTYPE svg PUBLIC "-//W3C//DTD SVG 20010904//EN"
 "http://www.w3.org/TR/2001/REC-SVG-20010904/DTD/svg10.dtd">
<svg version="1.0" xmlns="http://www.w3.org/2000/svg"
 width="260.000000pt" height="260.000000pt" viewBox="0 0 260.000000 260.000000"
 preserveAspectRatio="xMidYMid meet">
<metadata>
Created by potrace 1.14, written by Peter Selinger 2001-2017
</metadata>
<g transform="translate(0.000000,260.000000) scale(0.100000,-0.100000)"
fill="#000000" stroke="none">
<path d="M376 2589 c-119 -28 -260 -137 -318 -245 -59 -110 -58 -88 -58 -1044
0 -567 4 -891 11 -920 28 -123 135 -263 245 -322 110 -59 88 -58 1044 -58 567
0 891 4 920 11 123 28 263 135 322 245 59 110 58 88 58 1044 0 567 -4 891 -11
920 -28 123 -135 263 -245 322 -110 59 -87 58 -1049 57 -495 -1 -897 -5 -919
-10z m712 -1047 l-3 -439 -30 -43 c-39 -57 -115 -105 -197 -127 -136 -35 -248
20 -248 122 0 25 6 60 14 78 19 47 108 123 172 146 65 25 159 27 211 6 19 -8
37 -15 39 -15 2 0 4 160 4 355 0 350 0 355 20 355 20 0 21 -4 18 -438z m902 5
l0 -433 -29 -46 c-91 -143 -317 -194 -418 -93 -28 28 -33 40 -33 79 0 127 145
246 301 246 33 0 76 -7 96 -15 19 -8 37 -15 39 -15 2 0 4 160 4 355 0 348 0
355 20 355 20 0 20 -7 20 -433z m-700 -437 c11 -11 20 -24 20 -30 0 -5 -9 -19
-20 -30 -11 -11 -24 -20 -30 -20 -5 0 -19 9 -30 20 -11 11 -20 25 -20 30 0 6
9 19 20 30 11 11 25 20 30 20 6 0 19 -9 30 -20z m-264 -406 c144 -38 340 -44
482 -15 104 22 227 65 292 103 l35 20 -20 -22 c-62 -69 -237 -166 -355 -196
-85 -22 -235 -22 -320 0 -87 22 -211 83 -286 139 -90 69 -91 76 -4 34 42 -21
122 -49 176 -63z"/>
<path d="M889 1230 c-120 -30 -249 -127 -249 -187 0 -17 7 -36 15 -43 42 -35
156 -17 268 42 142 76 171 186 51 194 -27 2 -65 -1 -85 -6z"/>
<path d="M1780 1227 c-120 -34 -240 -126 -240 -184 0 -17 6 -36 14 -42 60 -50
250 4 348 99 50 49 60 80 35 114 -18 24 -96 30 -157 13z"/>
</g>
</svg>
